HIERARCHY
ROOT Hips
{
	OFFSET -14.64140 90.27770 -84.91600
	CHANNELS 6 Xposition Yposition Zposition Zrotation Xrotation Yrotation
	JOINT Spine
	{
		OFFSET 0.00000 13.20850 -1.60436
		CHANNELS 3 Zrotation Xrotation Yrotation
		JOINT Spine1
		{
			OFFSET 0.00000 8.61716 0.00000
			CHANNELS 3 Zrotation Xrotation Yrotation
			JOINT Spine2
			{
				OFFSET 0.00000 8.61717 0.00000
				CHANNELS 3 Zrotation Xrotation Yrotation
				JOINT Spine3
				{
					OFFSET 0.00000 8.61717 0.00000
					CHANNELS 3 Zrotation Xrotation Yrotation
					JOINT Neck
					{
						OFFSET 0.00000 11.07920 1.10792
						CHANNELS 3 Zrotation Xrotation Yrotation
						JOINT Neck1
						{
							OFFSET 0.00000 7.08032 0.00000
							CHANNELS 3 Zrotation Xrotation Yrotation
							JOINT Head
							{
								OFFSET 0.00000 7.08031 0.00000
								CHANNELS 3 Zrotation Xrotation Yrotation
								End site
								{
									OFFSET 0.00000 0.00000 0.00000
								}
							}
						}
					}
					JOINT RightShoulder
					{
						OFFSET -0.01000 7.91373 5.19711
						CHANNELS 3 Zrotation Xrotation Yrotation
						JOINT RightArm
						{
							OFFSET -18.41580 0.00000 0.00000
							CHANNELS 3 Zrotation Xrotation Yrotation
							JOINT RightForeArm
							{
								OFFSET -29.11090 0.00000 0.00000
								CHANNELS 3 Zrotation Xrotation Yrotation
								JOINT RightHand
								{
									OFFSET -24.65040 0.00000 0.00000
									CHANNELS 3 Zrotation Xrotation Yrotation
									JOINT RightHandThumb1
									{
										OFFSET -5.35114 -0.85590 3.97906
										CHANNELS 3 Zrotation Xrotation Yrotation
										JOINT RightHandThumb2
										{
											OFFSET -4.52789 0.00000 0.00000
											CHANNELS 3 Zrotation Xrotation Yrotation
											JOINT RightHandThumb3
											{
												OFFSET -2.46976 0.00000 0.00000
												CHANNELS 3 Zrotation Xrotation Yrotation
												End site
												{
													OFFSET 0.00000 0.00000 0.00000
												}
											}
										}
									}
									JOINT RightHandIndex1
									{
										OFFSET -14.26970 0.00000 2.88139
										CHANNELS 3 Zrotation Xrotation Yrotation
										JOINT RightHandIndex2
										{
											OFFSET -5.48836 0.00000 0.00000
											CHANNELS 3 Zrotation Xrotation Yrotation
											JOINT RightHandIndex3
											{
												OFFSET -3.01859 0.00000 0.00000
												CHANNELS 3 Zrotation Xrotation Yrotation
												End site
												{
													OFFSET 0.00000 0.00000 0.00000
												}
											}
										}
									}
									JOINT RightHandMiddle1
									{
										OFFSET -14.26970 0.00000 -0.09147
										CHANNELS 3 Zrotation Xrotation Yrotation
										JOINT RightHandMiddle2
										{
											OFFSET -6.17441 0.00000 0.00000
											CHANNELS 3 Zrotation Xrotation Yrotation
											JOINT RightHandMiddle3
											{
												OFFSET -3.56743 0.00000 0.00000
												CHANNELS 3 Zrotation Xrotation Yrotation
												End site
												{
													OFFSET 0.00000 0.00000 0.00000
												}
											}
										}
									}
									JOINT RightHandRing1
									{
										OFFSET -12.69180 0.00000 -3.06433
										CHANNELS 3 Zrotation Xrotation Yrotation
										JOINT RightHandRing2
										{
											OFFSET -5.62556 0.00000 0.00000
											CHANNELS 3 Zrotation Xrotation Yrotation
											JOINT RightHandRing3
											{
												OFFSET -3.56744 0.00000 0.00000
												CHANNELS 3 Zrotation Xrotation Yrotation
												End site
												{
													OFFSET 0.00000 0.00000 0.00000
												}
											}
										}
									}
									JOINT RightHandPinky1
									{
										OFFSET -11.11390 0.00000 -6.03719
										CHANNELS 3 Zrotation Xrotation Yrotation
										JOINT RightHandPinky2
										{
											OFFSET -4.52789 0.00000 0.00000
											CHANNELS 3 Zrotation Xrotation Yrotation
											JOINT RightHandPinky3
											{
												OFFSET -2.46976 0.00000 0.00000
												CHANNELS 3 Zrotation Xrotation Yrotation
												End site
												{
													OFFSET 0.00000 0.00000 0.00000
												}
											}
										}
									}
								}
							}
						}
					}
					JOINT LeftShoulder
					{
						OFFSET 0.01000 7.91373 5.19711
						CHANNELS 3 Zrotation Xrotation Yrotation
						JOINT LeftArm
						{
							OFFSET 18.41580 0.00000 0.00000
							CHANNELS 3 Zrotation Xrotation Yrotation
							JOINT LeftForeArm
							{
								OFFSET 29.11090 0.00000 0.00000
								CHANNELS 3 Zrotation Xrotation Yrotation
								JOINT LeftHand
								{
									OFFSET 24.65040 0.00000 0.00000
									CHANNELS 3 Zrotation Xrotation Yrotation
									JOINT LeftHandThumb1
									{
										OFFSET 5.35114 -0.85590 3.97906
										CHANNELS 3 Zrotation Xrotation Yrotation
										JOINT LeftHandThumb2
										{
											OFFSET 4.52789 0.00000 0.00000
											CHANNELS 3 Zrotation Xrotation Yrotation
											JOINT LeftHandThumb3
											{
												OFFSET 2.46977 0.00000 0.00000
												CHANNELS 3 Zrotation Xrotation Yrotation
												End site
												{
													OFFSET 0.00000 0.00000 0.00000
												}
											}
										}
									}
									JOINT LeftHandIndex1
									{
										OFFSET 14.26970 0.00000 2.88139
										CHANNELS 3 Zrotation Xrotation Yrotation
										JOINT LeftHandIndex2
										{
											OFFSET 5.48836 0.00000 0.00000
											CHANNELS 3 Zrotation Xrotation Yrotation
											JOINT LeftHandIndex3
											{
												OFFSET 3.01859 0.00000 0.00000
												CHANNELS 3 Zrotation Xrotation Yrotation
												End site
												{
													OFFSET 0.00000 0.00000 0.00000
												}
											}
										}
									}
									JOINT LeftHandMiddle1
									{
										OFFSET 14.26970 0.00000 -0.09147
										CHANNELS 3 Zrotation Xrotation Yrotation
										JOINT LeftHandMiddle2
										{
											OFFSET 6.17440 0.00000 0.00000
											CHANNELS 3 Zrotation Xrotation Yrotation
											JOINT LeftHandMiddle3
											{
												OFFSET 3.56744 0.00000 0.00000
												CHANNELS 3 Zrotation Xrotation Yrotation
												End site
												{
													OFFSET 0.00000 0.00000 0.00000
												}
											}
										}
									}
									JOINT LeftHandRing1
									{
										OFFSET 12.69180 0.00000 -3.06433
										CHANNELS 3 Zrotation Xrotation Yrotation
										JOINT LeftHandRing2
										{
											OFFSET 5.62556 0.00000 0.00000
											CHANNELS 3 Zrotation Xrotation Yrotation
											JOINT LeftHandRing3
											{
												OFFSET 3.56744 0.00000 0.00000
												CHANNELS 3 Zrotation Xrotation Yrotation
												End site
												{
													OFFSET 0.00000 0.00000 0.00000
												}
											}
										}
									}
									JOINT LeftHandPinky1
									{
										OFFSET 11.11390 0.00000 -6.03719
										CHANNELS 3 Zrotation Xrotation Yrotation
										JOINT LeftHandPinky2
										{
											OFFSET 4.52789 0.00000 0.00000
											CHANNELS 3 Zrotation Xrotation Yrotation
											JOINT LeftHandPinky3
											{
												OFFSET 2.46976 0.00000 0.00000
												CHANNELS 3 Zrotation Xrotation Yrotation
												End site
												{
													OFFSET 0.00000 0.00000 0.00000
												}
											}
										}
									}
								}
							}
						}
					}
					JOINT pCube4
					{
						OFFSET 0.00000 10.91090 1.10792
						CHANNELS 3 Zrotation Xrotation Yrotation
						End site
						{
							OFFSET 0.00000 0.00000 0.00000
						}
					}
				}
			}
		}
	}
	JOINT RightUpLeg
	{
		OFFSET -9.98441 0.00000 0.00000
		CHANNELS 3 Zrotation Xrotation Yrotation
		JOINT RightLeg
		{
			OFFSET 0.00000 -42.11790 0.00000
			CHANNELS 3 Zrotation Xrotation Yrotation
			JOINT RightFoot
			{
				OFFSET 0.00000 -45.00020 -0.00001
				CHANNELS 3 Zrotation Xrotation Yrotation
				JOINT RightForeFoot
				{
					OFFSET 0.00000 -3.74820 0.00000
					CHANNELS 3 Zrotation Xrotation Yrotation
					JOINT RightToeBase
					{
						OFFSET 0.00000 0.06325 14.43120
						CHANNELS 3 Zrotation Xrotation Yrotation
						End site
						{
							OFFSET 0.00000 0.00000 0.00000
						}
					}
				}
			}
		}
	}
	JOINT LeftUpLeg
	{
		OFFSET 9.98441 0.00000 0.00000
		CHANNELS 3 Zrotation Xrotation Yrotation
		JOINT LeftLeg
		{
			OFFSET 0.00000 -42.11800 0.00000
			CHANNELS 3 Zrotation Xrotation Yrotation
			JOINT LeftFoot
			{
				OFFSET 0.00000 -45.00070 0.00000
				CHANNELS 3 Zrotation Xrotation Yrotation
				JOINT LeftForeFoot
				{
					OFFSET 0.00000 -3.74824 0.00000
					CHANNELS 3 Zrotation Xrotation Yrotation
					JOINT LeftToeBase
					{
						OFFSET 0.00000 0.06325 14.43110
						CHANNELS 3 Zrotation Xrotation Yrotation
						End site
						{
							OFFSET 0.00000 0.00000 0.00000
						}
					}
				}
			}
		}
	}
}
MOTION
Frames: 4
Frame Time: 0.050000
-0.003728495547925983 0.023561703594264474 -0.012926762913264021 0.034530894161174136 0.043401190214189984 0.01739390811364789 -2.8484667724748594 -0.16274531596628858 -0.9753505765681206 -0.23776396074385234 3.826453209065554 0.27431724986320627 -0.7816470223167322 -2.055997428575699 -0.039608963951327514 -1.0454505901350688 -1.1876736785910533 -0.5794957718734771 -0.25684464874536966 13.088704991804223 -0.20143684038625864 0.9689264511185969 -0.48524915447986705 -0.13729088432513498 1.1881448799267975 -15.235455575647352 -0.0957082740351925 -0.4660787319626777 0.5982939964250815 -13.180297017018251 63.20794279575931 -0.6588162676516148 23.632814676856736 34.06314350233115 7.727549903247716 98.3093478322234 27.519343931928415 -0.0334783775746207 -7.670792714020075 4.508498486760325 -0.13464725462649596 -1.6220004097927339 0.005816541704770448 -0.005876327290555861 -56.27444304649273 0.014707045197063904 -0.03131330404130558 -56.19154444961098 -38.793599325260686 0.035186814330309076 -0.006800050904517372 -0.029252125512866992 -0.02303690676096754 0.03659852574183492 0.04402076595418945 -0.04185931348761752 -0.03492131175057365 -36.65885898104583 -0.027045963653369132 -0.03378148415449587 0.022302057760805894 -0.029093707043650358 -0.03931048154230782 0.03960332421815453 -0.04690370027951694 0.011820743013764692 -19.71506590462141 -0.0019950769139145657 0.01325670547205796 -0.03724404286833711 0.02657419457618133 -0.007870570808254849 -0.023404260026662835 0.04181904607617468 -0.003796042933041162 24.01533236251514 -0.04116623794453919 0.022864349171742314 28.828409709439804 -0.04128467648324055 -0.004426055917208109 28.854180953873843 -0.020176255452052167 -0.036374384935629854 4.633649164152786 1.3163294789142503 12.250853982981873 -68.01395485013921 25.244540650189943 -26.897709696104922 -24.594244680792656 3.5011717980293766 -97.44792934835235 -28.430050261477493 2.4756318610778427 -2.753747129986212 -0.4969355045409401 0.11496980489467354 -8.168672489044132 -0.0037840556448394663 -0.03799474618806531 44.52563220189981 -0.025862325007718574 -0.021837318327919818 44.59250316933824 12.496571354035128 -0.04553080759658296 -0.04217520649735017 -0.00874817113799775 0.0034117834013436942 0.004146879354728998 -0.032466388453865964 0.02027689808146818 0.020943927230190014 11.098456825014189 0.030033218476900464 0.042878458306396 0.024995422492282798 0.001141224698296503 -0.01933349114160772 -0.008764875304541118 0.03266001441260516 0.009986750930498263 4.816749657875617 0.032079806908088454 -0.013652329139433787 -0.04935284027933394 0.008867256230725254 0.02180213394199258 0.01294246980352034 0.031012316130705122 -0.0014636767522414745 -5.604305789523233 0.01045552679752402 -0.03871168957363652 -6.763575294569603 -0.039567045461319804 0.049480691668248325 -6.755949243613668 -0.03941954347653973 0.0043091918871818995 -0.04744384445339879 0.028804557327466482 0.019800318220963307 8.007185835129592 3.50902541695599 -19.185269254259488 -0.03736679497725638 10.438740545464869 -0.010446204601970037 -5.573464858082972 -15.6225092573297 3.160347323195454 -0.017235514195878217 0.01839074843502149 -0.047084407278959656 0.022861859779210247 4.7126366106182145 0.0014832446307889284 12.451400633983662 -8.264796411864246 6.837535117744366 -0.005409039348544609 46.34838613850886 -0.009431381332796272 -4.315270390865851 -14.718670790665536 -3.837729960859172 0.042693586323466766 0.01902531250606726 -0.0392778820304002 0.02217668648200042 -10.771256990792502 -0.004650132659096541 
0.036393473077678165 -0.00730615131913817 0.003940427602330001 0.01239826691322657 0.019136730375810686 0.03183706072767289 -2.636646037993485 -0.1606086578753883 -1.0292406799310916 -0.1959083409559407 3.7730262534352814 0.23978630685420044 -0.6836798751772654 -2.0212484172236866 -0.08358249547329238 -1.0194919768027586 -1.2141943633908532 -0.6117006429168305 -0.310188715608181 13.082964796115121 -0.11513699242069213 0.9929193796606127 -0.4765877400173428 -0.05293535770377478 1.223051386719792 -15.17961167261567 -0.06605615447563458 -0.5276398433898627 0.5676712705110883 -13.373215677240015 64.18730696534291 -0.7811212901087459 22.703396232482774 32.159222581586725 7.790544746241513 98.73455691499953 26.789185457925672 -0.05246281834106041 -7.107864382165217 4.51874159643572 -0.09958682085746222 -1.554514023662303 -0.012796146866278285 -0.002805633457311061 -56.25949723318676 0.03683219734773694 -0.01652871506434833 -56.19445560849801 -38.75745938601885 0.04612364067623898 0.013211574131404365 0.03846844523876235 0.04035304439952743 0.046462159302542806 -0.038270630068194506 -0.043749529826870186 0.0026529677456126523 -36.682365674536165 -0.03888219542766857 -0.0037038746403949946 0.031012564488856652 -0.006832901513380197 -0.030341004777791555 -0.0028931345009587726 0.03416150679962691 -0.010954844828777318 -19.738000591641526 -0.02450949165385731 -0.0056939555812859826 0.0028424963226162826 0.026936950790556108 -0.037606006857693705 -0.005521469128139324 0.0447829235475815 -0.03327056241519472 24.009310184362935 -0.002248948821977384 -0.0022253504131705135 28.862701041386927 0.04186722200599114 0.010875286521641159 28.84320722086733 -0.044187905183598226 0.0006854904989340113 4.781033181764016 1.3681550158207112 12.356313224517589 -68.69820386784107 24.128506167687192 -27.106737777809546 -23.121215930111816 3.7802038880109854 -97.20407604435142 -27.667985212718765 3.4335093226807283 -3.532480549659789 -0.4557650208440771 0.031059604493257682 -8.081692965400935 0.007086228179746592 0.037425229965811206 44.53523788598931 0.006345885996214266 -0.019830912998798512 44.58604110388535 12.445841362331016 0.029663724066168243 0.018682023272030942 -0.027146254253126313 0.03919895465893291 -0.009960978081007488 -0.033921681772372016 -0.02198565120273021 0.01088345820869558 11.147268711751163 0.015135519126810689 -0.0422862862872033 0.016826967770661172 -0.029322272441776306 -0.03104374784236169 -0.022648048198368548 0.042928765600631434 -0.017813542533816767 4.783357908583322 -0.03342109261316081 0.045436888277126934 0.030427427057871208 -0.0016881221386274379 0.046015474628057176 0.0336706069150334 -0.024966890136756566 -0.0284700239873259 -5.567983119689833 0.018961081283921218 0.008909389368922422 -6.756688089662099 0.04359863648186742 0.00987006242991111 -6.706376298862675 0.04711850090561685 -0.015791993897661553 -0.014566254175750243 0.008763161486111226 0.030713475178988803 8.009227227748495 3.5266168631002923 -19.264350131217842 -0.02309624729371062 10.358257359511958 0.04719855573584843 -5.61287736173201 -15.632351140388607 3.2300957951923053 -0.0375650325151809 -0.04310817117163287 -0.04980204050905584 0.01561753581704037 4.685968246810461 0.010600462860358326 12.488569263421274 -8.223798223264897 6.874500590661273 -0.04378735766590117 46.39477420754672 0.014519132639914712 -4.350541807251417 -14.784745758718001 -3.8617152711030296 0.015621824381664953 0.03374764474490747 0.01946707937011117 -0.038479465768515506 -10.779931884231384 -0.022285515938180425 
0.040084234773557666 -0.024048053258833524 0.036317335481449345 0.004241989871872002 0.00549719287443929 0.0053919384241335674 -2.2195477783690403 -0.2035117683397097 -1.0899151845746013 -0.19879933451203274 3.8392812715425784 0.26455513552782567 -0.6635085992298784 -2.098829032923151 -0.16479213153550232 -0.9832622170447652 -1.1609231940607625 -0.5376925830884541 -0.35226190377933236 13.149774988257118 -0.07211039963672514 1.0488097988603615 -0.3494093069228198 0.24947226974697914 1.1837561629275373 -15.152149317338228 -0.05667395637701815 -0.5845605669012749 0.6538642642057204 -13.444274413760803 65.35892480916567 -0.26819737978400704 21.6684535774689 31.07348707114754 8.076207714466388 99.24210645386842 25.991521248467116 -0.16303197562380456 -6.765101952182165 4.554621702709735 -0.1317166470786759 -1.5769216945335927 0.005202147880504687 0.04600789085269503 -56.208904166751175 -0.0464855511107566 -0.0398046732763192 -56.22699773931274 -38.75674431133577 -0.02237535062434594 0.01717854903255685 0.033308442118628365 -0.03996270275045292 0.007030207108701412 -0.00545494297193673 -0.03537419144759733 -0.00974456478202014 -36.65057229087554 0.04288190248859222 -0.021322504719710044 -0.007770134039722411 -0.002541697707051767 0.004766312498373544 0.01983228822412382 0.038099993764427235 0.02782568976437365 -19.792220542781102 0.03134585057737959 0.03465498160270042 0.03389794928215754 0.04240720293759494 -0.005179252369498506 -0.04235464056630685 -0.030409005300624598 -0.04915484184351191 24.06678877287155 0.008540391792732667 -0.021585043788067963 28.87760200096026 -0.03226435115597313 0.02464384097517212 28.81590344496923 0.024054826253538608 -0.019291156123527074 5.113472404043007 1.3932732800554166 12.422743533366587 -69.64891951327289 22.836219794260284 -27.382824599395907 -23.572664984631775 4.541641517497998 -96.81444127669354 -26.834832133875942 4.271545961593439 -4.0650966971402065 -0.4504267791801113 0.08561471398487532 -8.093034811575842 0.017687935569988815 0.019976821447802936 44.59213971213116 0.01006507815055888 0.017855956639015482 44.5660113288533 12.468843364035889 -0.02589153803787915 -0.03361324793625401 0.038588543130262457 0.018206223254743224 0.008320392467632382 -0.003916489439982914 -0.0004107831313802631 -0.013398234526270958 11.102645788472953 0.029263576446320088 0.04578879848789945 0.031175307437334588 -0.025544609411618766 -0.0019830285694242343 0.030109970301205127 0.0009108036347573458 0.030889151644633135 4.776068971864284 -0.023339253185862923 0.02418528424910092 -0.007545781369522471 0.025897171289160692 -0.016518065774321963 -0.025313100581305814 -0.04722648604784854 -0.035324242337644425 -5.642254461795944 0.040457762933256876 0.0380334093002252 -6.683510090524096 0.025614198015024008 -0.025898210758435174 -6.680953530833665 0.003322752988768404 -0.018715937511433436 -0.045011588124547024 -0.03750573604357864 0.019511147593297945 8.029578824923101 3.5255384643972825 -19.169671064252185 0.004749643702541344 10.354817223668567 -0.03458528755802355 -5.616440966734003 -15.648783631612291 3.1663214503103037 -0.04064900466187555 0.023741359147654035 -0.034255424834754716 -0.045478483518888224 4.691107377065095 0.042107999734936126 12.433809633295047 -8.189680519556003 6.9171454694029535 -0.0396582321596087 46.427428657743434 0.004667649106672013 -4.276200276116128 -14.767629295277022 -3.8216436925308352 0.024771419194910972 -0.02628654478744439 0.014121304634908892 0.03033040064190211 -10.730407278873342 0.026105019028171125 
0.03817389550547581 -0.016073536662911742 -0.036488990224311645 -0.019828162091542402 -0.00964135732223863 -0.04274540220696719 -1.8774501627366955 -0.21130976599844986 -1.1556349930350862 -0.16570469287745948 3.815870200377495 0.23834858695020736 -0.597373230758853 -2.020492924839169 -0.17506785516835788 -0.9630319267183907 -1.1777868979880246 -0.5424682941492232 -0.3428409317329899 13.225564877042217 -0.01889536306624602 1.0208621639930693 -0.332782801839109 0.495424002637258 1.1396080702999738 -15.08355070254617 -0.023113623672483413 -0.7943802622618208 0.7101351787466437 -13.565550757015103 66.23919541590344 0.35895652300120684 21.032883380720758 30.3008580304472 8.144297064789471 99.56865332692892 25.34082096452662 -0.12068995443068481 -6.378309190392103 4.5241163367387465 -0.07991382130888308 -1.5902250492011658 -0.0012283042756032108 0.0455371935546377 -56.21107110922646 -0.011558244853662332 0.010846563588050832 -56.23927401230136 -38.74942528609919 -0.005451748267664002 -0.0051282739666890014 -0.008312434484014105 -0.04095582190735832 -0.028083607869718762 0.006468520349740559 0.030127146228701874 -0.01337928039967208 -36.675696715838264 -0.048677765623677594 -0.03131517954585677 0.006146792391797707 0.02982346666098703 0.013326915261430842 -0.02830899351144677 -0.02782074613379128 0.04166824815626109 -19.709292358187504 -0.037787679752147585 0.029065864743791886 -0.023741765833302418 0.02538874473327416 0.03966940370511995 -0.027819083825414172 0.00036326267649056804 0.01794223246447422 24.028403797334963 0.03515595822190915 0.02537800001077836 28.85812839230499 0.00781606510716936 -0.03393656387008159 28.88604758395354 0.004395123534918028 0.03337617057627788 5.556605656568559 1.504398239011913 12.536844040697392 -70.38798982000411 21.746470098751782 -27.874923894445722 -24.683744971619422 5.3047180744020155 -96.4136755938071 -26.14025986950092 4.635543778578741 -4.286430357101084 -0.4801392988271723 0.07476690523043222 -8.144331635761372 0.011533736702470685 -0.004337119711759663 44.59053244270915 -0.003955049608773101 -0.03802025455726974 44.609842339391314 12.489085405692185 0.012903218778924596 -0.03303959030543764 -0.03183084706909354 0.020359701657989514 -0.036150502275044245 0.007491332095574708 -0.003553616616189389 0.035181888188494166 11.105671157867885 0.026469079916677796 -0.037027283266828394 0.027652477950313222 -0.022555980318557194 -0.012504637369747128 0.002650251465399629 0.015736688423645954 -0.0072020143548939064 4.780859867375615 0.03612166357209282 -0.004885626276342993 -0.011601303249161418 0.025063316422178628 -0.017957913986126783 0.018826734554415817 -0.016208055091672027 -0.021483126270268795 -5.628195400370739 -0.03960363512912399 -0.016817009531491043 -6.751174175554342 0.0006081301070240177 0.02700224173654036 -6.716648448563423 -0.02099057056075413 -0.024319297203396203 -0.009833646356350968 0.033140403681098836 0.03318226755980838 8.016645681379002 3.5167599200414292 -19.205758197488038 -0.030495670935722818 10.399735349255868 -0.025126021335136205 -5.585673281806042 -15.67627881082949 3.2055706548330276 -0.048934823402251006 -0.008339423280584816 -0.012903667888520444 -0.047084439697004196 4.7227026709013815 -0.022745693328668302 12.507287425786625 -8.28771489786141 6.8748102493802286 -0.015353260071503855 46.425559794425254 0.039490305400481235 -4.336067775222702 -14.758198270716395 -3.848895351840867 -0.03214237959524744 0.0223833715033602 -0.013257993941168285 -0.02687214763161488 -10.739489424103475 -0.023694270217275167 
